<?xml version="1.0" encoding="utf-8"?>
<!-- Generator: Adobe Illustrator 16.0.0, SVG Export Plug-In . SVG Version: 6.00 Build 0)  -->
<!DOCTYPE svg PUBLIC "-//W3C//DTD SVG 1.1//EN" "http://www.w3.org/Graphics/SVG/1.1/DTD/svg11.dtd">
<svg version="1.1" id="Layer_1" xmlns="http://www.w3.org/2000/svg" xmlns:xlink="http://www.w3.org/1999/xlink" x="0px" y="0px"
	 width="345.848px" height="345.765px" viewBox="0 0 345.848 345.765" enable-background="new 0 0 345.848 345.765"
	 xml:space="preserve">
<path fill="#999999" d="M73.021,263.146c-21.313-23.83-34.277-55.283-34.277-89.769c0-74.401,60.315-134.716,134.716-134.716
	c74.402,0,134.717,60.315,134.717,134.716c0,34.486-12.964,65.939-34.277,89.769l24.549,24.549
	c27.573-30.13,44.4-70.258,44.4-114.319c0-93.55-75.837-169.388-169.388-169.388C79.91,3.988,4.072,79.826,4.072,173.376
	c0,44.061,16.827,84.189,44.4,114.319L73.021,263.146z"/>
<path fill="#1979BA" d="M73.021,263.146c-21.313-23.829-34.278-55.283-34.278-89.769c0-74.401,60.315-134.716,134.716-134.716h0.001
	V3.989C79.91,3.989,4.072,79.826,4.072,173.376c0,44.061,16.827,84.188,44.4,114.318L73.021,263.146z"/>
</svg>
