<?xml version="1.0" encoding="UTF-8"?>
<svg width="930px" height="302px" viewBox="0 0 930 302" version="1.1" xmlns="http://www.w3.org/2000/svg" xmlns:xlink="http://www.w3.org/1999/xlink">
    <!-- Generator: Sketch 52.1 (67048) - http://www.bohemiancoding.com/sketch -->
    <title>Path</title>
    <desc>Created with Sketch.</desc>
    <g id="Page-1" stroke="none" stroke-width="1" fill="none" fill-rule="evenodd">
        <polyline id="Path" stroke="#69B3D5" stroke-width="2" fill-rule="nonzero" points="1.44335938 240.078125 11.8964844 229.049805 36.3828125 236.933594 61.8818359 263.008789 86.9238281 285.90625 112.258789 270.412109 134.649414 298.695313 159.466797 300.179688 183.118164 290.043945 205.291016 283.022461 231.329102 236.933594 254.532227 224.045898 280.657227 167.040039 303.824219 193.707031 327.120117 179.026367 351.504883 221.722656 375.805664 196.379883 398.681641 211.922852 422.637695 224.045898 448.602539 185.424805 470.958984 109.736328 494.039062 91.0957031 517.804688 76.1933594 540.589844 147.725586 564.147461 147.725586 586.717773 123.754883 609.470703 141.891602 632.375977 117.669922 653.711914 84.6943359 678.060547 30.5087891 700.764648 56.7685547 724.057617 44.2441406 747.331055 2.1796875 768.06543 27.3154297 794.354492 27.3154297 816.34375 67.0576172 839.076172 12.5966797 863.798828 37.0800781 884.331055 42.8876953 907.222656 37.0800781 928.520508 56.7685547"></polyline>
    </g>
</svg>