<svg id="Layer_1" data-name="Layer 1" xmlns="http://www.w3.org/2000/svg" width="64" height="64" viewBox="0 0 64 64"><defs><style>.cls-1{fill:#666;}</style></defs><title>printer</title><path class="cls-1" d="M54,22H46V12a1,1,0,0,0-.29-0.71l-7-7A1,1,0,0,0,38,4H17a1,1,0,0,0-1,1V22H8a4,4,0,0,0-4,4V44a4,4,0,0,0,4,4h8V59a1,1,0,0,0,1,1H45a1,1,0,0,0,1-1V48h8a4,4,0,0,0,4-4V26A4,4,0,0,0,54,22ZM43.59,12H38V6.41ZM18,6H36v7a1,1,0,0,0,1,1h7V26H18V6ZM44,58H18V38H44V58ZM56,44a2,2,0,0,1-2,2H46V37a1,1,0,0,0-1-1H17a1,1,0,0,0-1,1v9H8a2,2,0,0,1-2-2V26a2,2,0,0,1,2-2h8v3a1,1,0,0,0,1,1H45a1,1,0,0,0,1-1V24h8a2,2,0,0,1,2,2V44Z"/></svg>