<?xml version="1.0" encoding="utf-8"?>
<!-- Generator: Adobe Illustrator 16.0.0, SVG Export Plug-In . SVG Version: 6.00 Build 0)  -->
<!DOCTYPE svg PUBLIC "-//W3C//DTD SVG 1.1//EN" "http://www.w3.org/Graphics/SVG/1.1/DTD/svg11.dtd">
<svg version="1.1" id="Layer_1" xmlns="http://www.w3.org/2000/svg" xmlns:xlink="http://www.w3.org/1999/xlink" x="0px" y="0px"
	 width="112px" height="40px" viewBox="0 0 112 40" enable-background="new 0 0 112 40" xml:space="preserve">
<g>
	<g>
		<g>
			<path fill="#959A9D" d="M73.531,0.53c-17.04,0.253-34.12-0.377-50.671-0.391C15.505,0.14,8.192,0.14,1,0.14H0.094l0.001,0.905
				c0.021,12.923,0.042,25.602,0.063,38l0.001,0.844H1c32.561-0.068,63.847-0.138,94.007,0.041c3.494,0.021,9.24,0.065,12.822,0.038
				c7.44-0.058-0.08-1.067-3.641-1.21c-22.352-0.9-46.783-0.732-66.544-0.439C25.405,38.5,13.185,38.585,1,38.609l0.434,0.436
				c-0.026-12.701,0.011-25.374,0.072-38L1,1.551C38.065,1.728,74.804,2.099,111,1.6l-0.555-0.555
				c0.137,9.943,0.34,19.837,0.629,29.688c0.072,2.438,0.362,12.76,0.702,6.117c0.349-6.799,0.104-20.253,0.069-23.2
				c-0.031-4.115-0.063-8.279-0.096-12.605l-0.006-0.753L111,0.295C98.873,0.354,86.273,0.341,73.531,0.53z M79.63,0.788
				c-0.315-0.126,2.047-0.393,2.447-0.232C82.395,0.682,80.033,0.949,79.63,0.788z"/>
		</g>
	</g>
</g>
</svg>
